<svg width="960" height="640" viewBox="0 0 960 640" fill="none" xmlns="http://www.w3.org/2000/svg">
  <rect width="960" height="640" rx="40" fill="url(#bg)"/>
  <rect x="52" y="48" width="856" height="544" rx="34" fill="#FCFEFF" stroke="#D9E5F4"/>
  <rect x="52" y="48" width="856" height="72" rx="34" fill="#F3F8FD"/>
  <text x="756" y="92" fill="#0A1630" font-family="Arial, sans-serif" font-size="28" font-weight="700">Pro</text>

  <rect x="88" y="152" width="240" height="148" rx="24" fill="#FFFFFF" stroke="#E2EAF5"/>
  <text x="116" y="192" fill="#0A1630" font-family="Arial, sans-serif" font-size="22" font-weight="700">Nodal Scenario</text>
  <text x="116" y="220" fill="#5E7197" font-family="Arial, sans-serif" font-size="15">Tubing and lift constraints</text>
  <path d="M120 260L156 232L194 248L232 214L292 254" stroke="#1FB21B" stroke-width="8" stroke-linecap="round" stroke-linejoin="round"/>
  <circle cx="156" cy="232" r="7" fill="#5A8FFF"/>
  <circle cx="232" cy="214" r="7" fill="#5A8FFF"/>

  <rect x="356" y="152" width="300" height="148" rx="24" fill="#FFFFFF" stroke="#E2EAF5"/>
  <text x="384" y="192" fill="#0A1630" font-family="Arial, sans-serif" font-size="22" font-weight="700">Production Alerts</text>
  <text x="384" y="220" fill="#5E7197" font-family="Arial, sans-serif" font-size="15">Thresholds and event review</text>
  <rect x="384" y="248" width="112" height="16" rx="8" fill="#EAFFF0"/>
  <rect x="384" y="276" width="204" height="14" rx="7" fill="#DCE6F3"/>
  <rect x="384" y="304" width="150" height="14" rx="7" fill="#DCE6F3"/>
  <rect x="544" y="248" width="84" height="56" rx="18" fill="#EAFFF0" stroke="#BDE8C8"/>
  <text x="564" y="282" fill="#1FB21B" font-family="Arial, sans-serif" font-size="24" font-weight="700">12</text>
  <text x="690" y="192" fill="#5E7197" font-family="Arial, sans-serif" font-size="14">most popular</text>

  <rect x="684" y="152" width="188" height="148" rx="24" fill="#FFFFFF" stroke="#E2EAF5"/>
  <text x="712" y="192" fill="#0A1630" font-family="Arial, sans-serif" font-size="22" font-weight="700">Reserve Cases</text>
  <rect x="712" y="222" width="132" height="12" rx="6" fill="#DCE6F3"/>
  <rect x="712" y="248" width="132" height="12" rx="6" fill="#DCE6F3"/>
  <rect x="712" y="278" width="66" height="16" rx="8" fill="#EAFFF0"/>
  <rect x="790" y="278" width="54" height="16" rx="8" fill="#EEF5FF"/>

  <rect x="88" y="328" width="504" height="228" rx="24" fill="#FFFFFF" stroke="#E2EAF5"/>
  <text x="116" y="368" fill="#0A1630" font-family="Arial, sans-serif" font-size="22" font-weight="700">Engineering Workspace</text>
  <text x="116" y="396" fill="#5E7197" font-family="Arial, sans-serif" font-size="15">Shared cases, forecasts and reports</text>
  <rect x="116" y="424" width="436" height="2" fill="#E3EBF6"/>
  <rect x="120" y="456" width="120" height="72" rx="20" fill="#F4F8FD"/>
  <text x="146" y="498" fill="#0A1630" font-family="Arial, sans-serif" font-size="24" font-weight="700">150</text>
  <text x="146" y="520" fill="#5E7197" font-family="Arial, sans-serif" font-size="15">wells</text>
  <rect x="264" y="456" width="120" height="72" rx="20" fill="#F4F8FD"/>
  <text x="292" y="498" fill="#0A1630" font-family="Arial, sans-serif" font-size="24" font-weight="700">10</text>
  <text x="292" y="520" fill="#5E7197" font-family="Arial, sans-serif" font-size="15">seats</text>
  <rect x="408" y="456" width="144" height="72" rx="20" fill="#EAFFF0" stroke="#BDE8C8"/>
  <text x="436" y="498" fill="#1FB21B" font-family="Arial, sans-serif" font-size="24" font-weight="700">API</text>
  <text x="436" y="520" fill="#5E7197" font-family="Arial, sans-serif" font-size="15">exports</text>

  <rect x="620" y="328" width="252" height="228" rx="24" fill="#FFFFFF" stroke="#E2EAF5"/>
  <text x="648" y="368" fill="#0A1630" font-family="Arial, sans-serif" font-size="22" font-weight="700">Scenario Board</text>
  <rect x="648" y="402" width="196" height="16" rx="8" fill="#DCE6F3"/>
  <rect x="648" y="440" width="80" height="16" rx="8" fill="#EAFFF0"/>
  <rect x="648" y="480" width="180" height="16" rx="8" fill="#DCE6F3"/>
  <path d="M648 530H844" stroke="#E3EBF6" stroke-width="2"/>
  <path d="M658 520C684 470 718 448 758 460C792 470 814 502 840 492" stroke="#5A8FFF" stroke-width="8" stroke-linecap="round"/>

  <defs>
    <linearGradient id="bg" x1="72" y1="18" x2="920" y2="640" gradientUnits="userSpaceOnUse">
      <stop stop-color="#EDF6FF"/>
      <stop offset="1" stop-color="#F0FFF2"/>
    </linearGradient>
  </defs>
</svg>
